<svg width="50" height="50" viewBox="0 0 50 50" fill="none" xmlns="http://www.w3.org/2000/svg">
<path d="M6.49681 0H43.5032C45.2261 0.00034853 46.8784 0.684945 48.0967 1.90326C49.3151 3.12157 49.9997 4.77386 50 6.49682V43.5032C49.9997 45.2261 49.3151 46.8784 48.0967 48.0967C46.8784 49.3151 45.2261 49.9996 43.5032 50H21.4939L43.866 27.6266L41.4997 21.8778L43.866 19.5115L38.622 14.253L36.2557 16.6193L30.5082 14.253L28.1419 16.6193L22.3931 14.253L20.0268 16.6193L14.2793 14.253L11.913 16.6193L6.16553 14.253L0.0315437 20.387V6.49682C0.0318718 4.77931 0.712132 3.13179 1.92363 1.91437C3.13513 0.696962 4.77933 0.00868652 6.49681 0Z" fill="#625F74"/>
<path d="M11.8761 16.6259L14.2424 14.2596L19.9899 16.6259L22.3562 14.2596L28.105 16.6259L30.4713 14.2596L36.2188 16.6259L38.5851 14.2596L43.8291 19.5181L41.4628 21.8844L43.8291 27.6332L21.4938 50H6.49672C4.77376 49.9997 3.12147 49.3151 1.90316 48.0968C0.684845 46.8784 0.000244141 45.2262 -0.000102997 43.5032V20.387L6.13388 14.2531L11.8761 16.6259Z" fill="#625F74"/>
<path d="M39.8088 13.7587H42.6707C43.6044 13.7587 44.3613 14.5156 44.3613 15.4493V18.3112C44.3613 19.2449 43.6044 20.0018 42.6707 20.0018H39.8088C38.8751 20.0018 38.1182 19.2449 38.1182 18.3112V15.4493C38.1182 14.5156 38.8751 13.7587 39.8088 13.7587Z" fill="#ECEBF2"/>
<path d="M31.6887 13.7587H34.5506C35.4843 13.7587 36.2412 14.5156 36.2412 15.4493V18.3112C36.2412 19.2449 35.4843 20.0018 34.5506 20.0018H31.6887C30.755 20.0018 29.9981 19.2449 29.9981 18.3112V15.4493C29.9981 14.5156 30.755 13.7587 31.6887 13.7587Z" fill="#ECEBF2"/>
<path d="M23.5696 13.7587H26.4315C27.3652 13.7587 28.1221 14.5156 28.1221 15.4493V18.3112C28.1221 19.2449 27.3652 20.0018 26.4315 20.0018H23.5696C22.6359 20.0018 21.879 19.2449 21.879 18.3112V15.4493C21.879 14.5156 22.6359 13.7587 23.5696 13.7587Z" fill="#ECEBF2"/>
<path d="M15.4494 13.7587H18.3114C19.245 13.7587 20.002 14.5156 20.002 15.4493V18.3112C20.002 19.2449 19.245 20.0018 18.3114 20.0018H15.4494C14.5158 20.0018 13.7589 19.2449 13.7589 18.3112V15.4493C13.7589 14.5156 14.5158 13.7587 15.4494 13.7587Z" fill="#ECEBF2"/>
<path d="M7.32933 13.7587H10.1912C11.1249 13.7587 11.8818 14.5156 11.8818 15.4493V18.3112C11.8818 19.2449 11.1249 20.0018 10.1912 20.0018H7.32933C6.39564 20.0018 5.63873 19.2449 5.63873 18.3112V15.4493C5.63873 14.5156 6.39564 13.7587 7.32933 13.7587Z" fill="#ECEBF2"/>
<path d="M39.8088 21.8778H42.6707C43.6044 21.8778 44.3613 22.6347 44.3613 23.5684V26.4303C44.3613 27.364 43.6044 28.1209 42.6707 28.1209H39.8088C38.8751 28.1209 38.1182 27.364 38.1182 26.4303V23.5684C38.1182 22.6347 38.8751 21.8778 39.8088 21.8778Z" fill="#ECEBF2"/>
<path d="M31.6887 21.8778H34.5506C35.4843 21.8778 36.2412 22.6347 36.2412 23.5684V26.4303C36.2412 27.364 35.4843 28.1209 34.5506 28.1209H31.6887C30.755 28.1209 29.9981 27.364 29.9981 26.4303V23.5684C29.9981 22.6347 30.755 21.8778 31.6887 21.8778Z" fill="#ECEBF2"/>
<path d="M23.5696 21.8778H26.4315C27.3652 21.8778 28.1221 22.6347 28.1221 23.5684V26.4303C28.1221 27.364 27.3652 28.1209 26.4315 28.1209H23.5696C22.6359 28.1209 21.879 27.364 21.879 26.4303V23.5684C21.879 22.6347 22.6359 21.8778 23.5696 21.8778Z" fill="#ECEBF2"/>
<path d="M15.4494 21.8778H18.3114C19.245 21.8778 20.002 22.6347 20.002 23.5684V26.4303C20.002 27.364 19.245 28.1209 18.3114 28.1209H15.4494C14.5158 28.1209 13.7589 27.364 13.7589 26.4303V23.5684C13.7589 22.6347 14.5158 21.8778 15.4494 21.8778Z" fill="#ECEBF2"/>
<path d="M7.32933 21.8778H10.1912C11.1249 21.8778 11.8818 22.6347 11.8818 23.5684V26.4303C11.8818 27.364 11.1249 28.1209 10.1912 28.1209H7.32933C6.39564 28.1209 5.63873 27.364 5.63873 26.4303V23.5684C5.63873 22.6347 6.39564 21.8778 7.32933 21.8778Z" fill="#ECEBF2"/>
<path d="M15.4493 29.9982H34.5506C34.999 29.9982 35.429 30.1763 35.746 30.4933C36.0631 30.8104 36.2412 31.2404 36.2412 31.6888V34.5507C36.2412 34.999 36.0631 35.4291 35.746 35.7461C35.429 36.0632 34.999 36.2413 34.5506 36.2413H15.4493C15.0009 36.2413 14.5709 36.0632 14.2539 35.7461C13.9368 35.4291 13.7587 34.999 13.7587 34.5507V31.6888C13.7587 31.2404 13.9368 30.8104 14.2539 30.4933C14.5709 30.1763 15.0009 29.9982 15.4493 29.9982Z" fill="#ECEBF2"/>
</svg>
