<svg width="314" height="65" viewBox="0 0 314 65" fill="none" xmlns="http://www.w3.org/2000/svg">
<path d="M103.12 19.1785V51.4094H95.4617V19.1785H82.7138V13.2608H115.868V19.1785H103.12Z" fill="#6A61C9"/>
<path d="M132.83 51.4094V35.2702L119.117 13.2608H127.408L136.664 28.0287L145.92 13.2608H154.211L140.498 35.2702V51.4094H132.83Z" fill="#6A61C9"/>
<path d="M159.254 13.2608H179.707C181.268 13.2473 182.821 13.4768 184.312 13.9411C185.684 14.3655 186.955 15.0675 188.046 16.0034C189.136 16.9651 189.986 18.1679 190.53 19.516C191.159 21.0951 191.464 22.7848 191.427 24.4843C191.477 26.106 191.197 27.721 190.604 29.2312C190.09 30.4554 189.293 31.54 188.278 32.3957C187.196 33.2826 185.965 33.9718 184.644 34.4316C183.096 34.9841 181.509 35.4213 179.897 35.7396L166.901 38.8039V51.4094H159.254V13.2608ZM183.826 24.458C183.826 22.7491 183.299 21.4358 182.302 20.5339C181.203 19.6001 179.792 19.1159 178.352 19.1785H166.901V32.4063L177.518 30.228C179.554 29.8764 181.112 29.2224 182.191 28.266C182.728 27.792 183.153 27.2042 183.434 26.5455C183.715 25.8867 183.845 25.1736 183.816 24.458H183.826Z" fill="#6A61C9"/>
<path d="M197.756 13.2608H205.414V45.497H225.815V51.4094H197.756V13.2608Z" fill="#6A61C9"/>
<path d="M238.051 13.2608V51.4094H230.393V13.2608H238.051Z" fill="#6A61C9"/>
<path d="M246.875 41.2776C247.766 42.0304 248.73 42.6913 249.754 43.2501C250.821 43.8379 251.932 44.3405 253.077 44.7533C254.251 45.174 255.46 45.4899 256.69 45.6974C257.93 45.9092 259.188 45.9975 260.445 45.9611C262.105 45.9977 263.746 45.6149 265.219 44.8482C265.819 44.5178 266.313 44.0237 266.644 43.4233C266.974 42.8229 267.128 42.141 267.086 41.4569C267.132 40.6967 266.988 39.9369 266.665 39.2469C266.343 38.5569 265.853 37.9585 265.24 37.5065C264.016 36.6169 262.207 35.8978 259.812 35.3493C257.629 34.9021 255.483 34.2867 253.394 33.5086C251.72 32.8991 250.145 32.0499 248.715 30.9875C247.515 30.091 246.537 28.9307 245.857 27.5962C245.184 26.1901 244.851 24.6452 244.886 23.0867C244.847 21.4297 245.247 19.7917 246.047 18.3399C246.832 16.9908 247.914 15.8382 249.211 14.9696C250.6 14.0364 252.143 13.3561 253.768 12.9602C258.001 11.9219 262.442 12.1233 266.563 13.5403C269.007 14.4207 271.347 15.5668 273.541 16.958L270.683 22.7228C269.059 21.5531 267.285 20.6076 265.408 19.9116C263.508 19.1804 261.499 18.7687 259.464 18.6933C258.646 18.6622 257.826 18.7099 257.017 18.8357C256.248 18.9532 255.5 19.1824 254.797 19.516C254.16 19.8193 253.604 20.2672 253.172 20.8241C252.742 21.4138 252.521 22.1303 252.545 22.8599C252.53 23.4987 252.645 24.1337 252.882 24.727C253.15 25.3099 253.569 25.8106 254.095 26.1774C254.813 26.6928 255.595 27.113 256.421 27.4274C257.64 27.8923 258.887 28.2799 260.155 28.5877C262.475 29.1806 264.75 29.9349 266.964 30.8451C268.591 31.4901 270.11 32.3794 271.468 33.4822C272.56 34.3891 273.417 35.545 273.968 36.8525C274.519 38.2616 274.788 39.765 274.76 41.2776C274.79 42.9342 274.388 44.5703 273.594 46.0244C272.813 47.4024 271.731 48.5868 270.429 49.4896C268.988 50.4799 267.38 51.2034 265.683 51.6256C263.774 52.1194 261.81 52.3623 259.839 52.3482C256.939 52.3542 254.06 51.8471 251.337 50.8503C248.702 49.898 246.201 48.6111 243.895 47.0212L246.875 41.2776Z" fill="#6A61C9"/>
<path d="M306.342 51.4094V31.8947L288.473 36.7681V51.4094H280.799V13.2608H288.473V30.9559L306.358 26.0614V13.2608H314V51.4094H306.342Z" fill="#6A61C9"/>
<path d="M5.83644 18.8884C5.83644 18.9464 5.83644 18.9991 5.83644 19.0571C5.83358 19.022 5.83358 18.9868 5.83644 18.9517V18.8884Z" fill="white"/>
<path d="M68.6843 19.1521C68.6785 19.0916 68.6679 19.0316 68.6527 18.9728V18.9095C68.3404 18.1079 67.7326 17.4566 66.9544 17.0899L42.3553 2.88634C40.8834 2.11298 39.2391 1.7264 37.5768 1.76293C35.9257 1.72992 34.2929 2.11453 32.83 2.88107L8.36808 17.0899C7.97575 17.2755 7.6258 17.5399 7.33998 17.8665C7.05417 18.1932 6.83861 18.5751 6.70669 18.9886V18.9886C6.69105 19.0492 6.68046 19.1109 6.67505 19.1732C6.67505 19.2312 6.67505 19.2945 6.67505 19.3525C6.69226 19.8564 6.89296 20.3365 7.23939 20.7027C7.28058 20.7527 7.3246 20.8002 7.37125 20.8451C7.56746 21.0421 7.78303 21.2188 8.01471 21.3726C8.13601 21.4622 8.27314 21.5413 8.41028 21.6257L33.0093 35.8187C35.599 37.3166 39.9503 37.3219 42.503 35.8187L66.9966 21.6257C68.0936 20.9875 68.7002 20.1859 68.7002 19.3736C68.7007 19.2995 68.6954 19.2254 68.6843 19.1521V19.1521ZM29.6233 17.5276L22.7931 21.4728C22.6604 21.5507 22.5093 21.5917 22.3554 21.5917C22.2015 21.5917 22.0504 21.5507 21.9176 21.4728L18.5737 19.516C18.4412 19.4397 18.3311 19.3298 18.2545 19.1974C18.178 19.065 18.1377 18.9148 18.1377 18.7618C18.1377 18.6089 18.178 18.4586 18.2545 18.3262C18.3311 18.1938 18.4412 18.0839 18.5737 18.0076L37.4714 7.10574C37.6046 7.02941 37.7555 6.98925 37.9091 6.98925C38.0627 6.98925 38.2136 7.02941 38.3469 7.10574L41.696 9.05193C41.8273 9.1293 41.936 9.23956 42.0116 9.37184C42.0872 9.50411 42.1269 9.65381 42.1269 9.80615C42.1269 9.95849 42.0872 10.1082 42.0116 10.2405C41.936 10.3727 41.8273 10.483 41.696 10.5604L35.7309 14.0044L52.6823 23.8567C52.8135 23.9341 52.9223 24.0444 52.9979 24.1766C53.0734 24.3089 53.1132 24.4586 53.1132 24.611C53.1132 24.7633 53.0734 24.913 52.9979 25.0453C52.9223 25.1775 52.8135 25.2878 52.6823 25.3652L48.3152 27.8863C48.1827 27.9621 48.0327 28.002 47.8801 28.002C47.7274 28.002 47.5774 27.9621 47.445 27.8863L29.6233 17.5276Z" fill="white"/>
<path d="M69.5335 19.727C69.5335 19.6162 69.5335 19.5055 69.5599 19.3947C69.5589 19.506 69.5501 19.617 69.5335 19.727V19.727Z" fill="white"/>
<path d="M69.5335 19.727C69.5335 19.727 69.5335 19.7534 69.5335 19.7639C69.5335 19.7745 69.5282 19.7375 69.5335 19.727Z" fill="white"/>
<path d="M69.3172 21.958C68.8833 22.4195 68.3818 22.8126 67.8299 23.1236L43.4893 37.2902L67.8721 23.1236C68.4092 22.8197 68.898 22.4376 69.3225 21.9896L69.3172 21.958ZM5.82061 18.9359C5.81775 18.971 5.81775 19.0062 5.82061 19.0413C5.82061 18.9833 5.82061 18.9306 5.82061 18.8726V18.9359Z" fill="black"/>
<path d="M5.83644 18.8884C5.83644 18.9464 5.83644 18.9991 5.83644 19.0571C5.83358 19.022 5.83358 18.9868 5.83644 18.9517V18.8884Z" fill="white"/>
<path d="M69.5335 19.727C69.5335 19.6162 69.5335 19.5055 69.5599 19.3947C69.5589 19.506 69.5501 19.617 69.5335 19.727V19.727Z" fill="white"/>
<path d="M69.5335 19.727C69.5335 19.727 69.5335 19.7534 69.5335 19.7639C69.5335 19.7745 69.5282 19.7375 69.5335 19.727Z" fill="white"/>
<path d="M71.7645 45.1805L43.368 61.5729L43.2467 61.6625C40.1718 63.3714 35.2614 63.3503 32.2129 61.5887L3.79003 45.1805C2.26577 44.305 1.55375 43.1499 1.75944 42.0213C1.75944 42.0213 1.75944 41.9896 1.75944 41.9738L6.04741 21.9844C6.14762 22.0899 6.2531 22.1901 6.36386 22.2903C6.47462 22.3905 6.55373 22.4591 6.65394 22.5382L6.76998 22.6279C6.87546 22.707 6.98095 22.7861 7.09698 22.8599C7.21301 22.9338 7.37124 23.0393 7.51892 23.1236L32.1444 37.3325C33.1941 37.9177 34.3384 38.314 35.5252 38.5033C35.7678 38.5455 36.0157 38.5824 36.2688 38.6141C36.7731 38.6714 37.2803 38.6996 37.7878 38.6985C38.0357 38.6985 38.2836 38.6985 38.5315 38.6985C38.7741 38.6985 39.0167 38.6774 39.2593 38.6352L39.6602 38.5824C39.6934 38.5875 39.7272 38.5875 39.7604 38.5824L40.0557 38.5033L40.2034 38.477C40.3827 38.4453 40.5568 38.4084 40.7308 38.3662H40.7836L41.311 38.2185L41.464 38.1711H41.5061C41.7013 38.113 41.8912 38.0498 42.0758 37.9759C42.2604 37.9021 42.5083 37.8019 42.7192 37.7069C42.9302 37.612 43.1306 37.5065 43.3258 37.3957C43.3778 37.3728 43.4273 37.3445 43.4734 37.3114L67.8141 23.1447C68.366 22.8337 68.8675 22.4407 69.3014 21.9791V22.0108L73.774 42.0529C74.0271 43.1552 73.2835 44.305 71.7645 45.1805Z" fill="white"/>
<path d="M68.6843 19.1521C68.7845 20.0276 68.1569 20.9137 66.9544 21.6152L42.5452 35.824L66.9966 21.6257C68.0936 20.9875 68.7001 20.1858 68.7001 19.3736C68.7007 19.2995 68.6954 19.2254 68.6843 19.1521V19.1521ZM5.82061 18.9359C5.81775 18.971 5.81775 19.0062 5.82061 19.0413C5.82061 18.9833 5.82061 18.9306 5.82061 18.8726V18.9359Z" fill="black"/>
<path d="M53.1148 24.611C53.1157 24.7637 53.0761 24.9139 53.0002 25.0464C52.9242 25.1788 52.8145 25.2888 52.6823 25.3652L48.3152 27.8863C48.1827 27.9621 48.0327 28.0021 47.8801 28.0021C47.7274 28.0021 47.5774 27.9621 47.4449 27.8863L29.6233 17.5277L22.7931 21.4728C22.6604 21.5507 22.5093 21.5917 22.3554 21.5917C22.2015 21.5917 22.0503 21.5507 21.9176 21.4728L18.5737 19.516C18.4412 19.4397 18.3311 19.3298 18.2545 19.1974C18.178 19.065 18.1376 18.9148 18.1376 18.7618C18.1376 18.6089 18.178 18.4586 18.2545 18.3262C18.3311 18.1938 18.4412 18.0839 18.5737 18.0076L37.4714 7.10575C37.6046 7.02942 37.7555 6.98926 37.9091 6.98926C38.0627 6.98926 38.2136 7.02942 38.3469 7.10575L41.696 9.05194C41.8273 9.12931 41.936 9.23957 42.0116 9.37185C42.0872 9.50412 42.1269 9.65382 42.1269 9.80616C42.1269 9.9585 42.0872 10.1082 42.0116 10.2405C41.936 10.3727 41.8273 10.483 41.696 10.5604L35.7309 14.0045L52.6823 23.8567C52.8149 23.9327 52.9249 24.0426 53.0009 24.1752C53.0769 24.3077 53.1162 24.4582 53.1148 24.611V24.611Z" fill="#6A61C9"/>
<path d="M5.83644 18.8884C5.83644 18.9464 5.83644 18.9991 5.83644 19.0571C5.83358 19.022 5.83358 18.9868 5.83644 18.9517V18.8884Z" fill="white"/>
<path d="M69.5335 19.727C69.5335 19.727 69.5335 19.7534 69.5335 19.7639C69.5335 19.7745 69.5282 19.7375 69.5335 19.727Z" fill="white"/>
<path d="M69.5335 19.727C69.5335 19.6162 69.5335 19.5055 69.5599 19.3947C69.5589 19.506 69.5501 19.617 69.5335 19.727V19.727Z" fill="white"/>
<path d="M71.7645 45.1805L43.368 61.5729L43.2467 61.6625C40.1718 63.3714 35.2614 63.3503 32.2129 61.5887L3.79003 45.1805C2.26577 44.305 1.55375 43.1499 1.75944 42.0213C1.75944 42.0213 1.75944 41.9896 1.75944 41.9738L6.04741 21.9844C6.14762 22.0899 6.2531 22.1901 6.36386 22.2903C6.47462 22.3905 6.55373 22.4591 6.65394 22.5382L6.76998 22.6279C6.87546 22.707 6.98095 22.7861 7.09698 22.8599C7.21301 22.9338 7.37124 23.0393 7.51892 23.1236L32.1444 37.3325C33.1941 37.9177 34.3384 38.314 35.5252 38.5033C35.7678 38.5455 36.0157 38.5824 36.2688 38.6141C36.7731 38.6714 37.2803 38.6996 37.7878 38.6985C38.0357 38.6985 38.2836 38.6985 38.5315 38.6985C38.7741 38.6985 39.0167 38.6774 39.2593 38.6352L39.6602 38.5824C39.6934 38.5875 39.7272 38.5875 39.7604 38.5824L40.0557 38.5033L40.2034 38.477C40.3827 38.4453 40.5568 38.4084 40.7308 38.3662H40.7836L41.311 38.2185L41.464 38.1711H41.5061C41.7013 38.113 41.8912 38.0498 42.0758 37.9759C42.2604 37.9021 42.5083 37.8019 42.7192 37.7069C42.9302 37.612 43.1306 37.5065 43.3258 37.3957C43.3778 37.3728 43.4273 37.3445 43.4734 37.3114L67.8141 23.1447C68.366 22.8337 68.8675 22.4407 69.3014 21.9791V22.0108L73.774 42.0529C74.0271 43.1552 73.2835 44.305 71.7645 45.1805Z" fill="white"/>
<path d="M68.6843 19.1521C68.7845 20.0276 68.1569 20.9137 66.9544 21.6152L42.5452 35.824L66.9966 21.6257C68.0936 20.9875 68.7001 20.1858 68.7001 19.3736C68.7007 19.2995 68.6954 19.2254 68.6843 19.1521V19.1521ZM5.82061 18.9359C5.81775 18.971 5.81775 19.0062 5.82061 19.0413C5.82061 18.9833 5.82061 18.9306 5.82061 18.8726V18.9359Z" fill="black"/>
<path d="M75.5039 41.6679L70.409 18.8304C70.3136 18.28 70.0974 17.7577 69.7761 17.3008C69.2633 16.5982 68.6025 16.0166 67.8405 15.5973L43.2203 1.37262C40.0557 -0.457541 35.0874 -0.457541 31.9334 1.37262L7.49255 15.5867C6.90806 15.8811 6.38879 16.2902 5.96564 16.7894C5.54249 17.2887 5.22412 17.868 5.02948 18.4928C5.01826 18.5237 5.00944 18.5555 5.00311 18.5878L0.0664158 41.5993V41.6573V41.7311C-0.286959 43.593 0.783713 45.4231 2.94615 46.6889L31.3691 63.1024C33.3521 64.1733 35.5765 64.7181 37.83 64.6847C40.0769 64.7189 42.2947 64.174 44.2699 63.1024C44.3163 63.0768 44.3589 63.0448 44.3964 63.0074L72.6664 46.6889C74.8236 45.4284 75.9206 43.5508 75.5039 41.6679ZM6.67504 19.1521C6.68046 19.0898 6.69105 19.0281 6.70669 18.9675C6.84173 18.5588 7.05872 18.182 7.34438 17.8601C7.63005 17.5381 7.97838 17.2779 8.36808 17.0951L32.8142 2.88106C34.2771 2.11451 35.9098 1.7299 37.561 1.76292C39.2233 1.72639 40.8676 2.11296 42.3395 2.88633L66.9544 17.0899C67.7216 17.4607 68.3193 18.1093 68.6263 18.9042V18.9675C68.6415 19.0264 68.6521 19.0863 68.658 19.1468C68.6632 19.2171 68.6632 19.2876 68.658 19.3578C68.658 20.17 68.0514 20.9717 66.9544 21.6099L42.5452 35.824C39.9661 37.3166 35.6148 37.3113 33.0515 35.824L8.41027 21.6257C8.27309 21.55 8.14096 21.4654 8.0147 21.3726C7.78303 21.2188 7.56745 21.0421 7.37124 20.8451C7.3246 20.8002 7.28057 20.7527 7.23939 20.7027C6.89296 20.3365 6.69226 19.8563 6.67504 19.3525C6.6645 19.2734 6.66977 19.2101 6.67504 19.1521ZM5.82062 18.9517V18.9042C5.82062 18.9622 5.82062 19.015 5.82062 19.073C5.81683 19.0326 5.81683 18.992 5.82062 18.9517ZM71.7487 45.1805L43.368 61.5728L43.2467 61.6625C40.1718 63.3714 35.2614 63.3503 32.2129 61.5887L3.79003 45.1805C2.26578 44.305 1.55375 43.1499 1.75945 42.0212C1.75945 42.0212 1.75945 41.9896 1.75945 41.9738L6.04741 21.9844C6.14762 22.0899 6.2531 22.1901 6.36386 22.2903C6.47462 22.3905 6.55374 22.4591 6.65395 22.5382L6.76998 22.6278C6.87547 22.7069 6.98095 22.7861 7.09698 22.8599C7.21302 22.9337 7.37124 23.0392 7.51892 23.1236L32.1444 37.3324C33.1941 37.9176 34.3384 38.314 35.5252 38.5033C35.7678 38.5455 36.0157 38.5824 36.2688 38.6141C36.7731 38.6714 37.2803 38.6996 37.7878 38.6985C38.0357 38.6985 38.2836 38.6985 38.5315 38.6985C38.7741 38.6985 39.0167 38.6774 39.2593 38.6352L39.6602 38.5824C39.6934 38.5875 39.7272 38.5875 39.7604 38.5824L40.0557 38.5033L40.2034 38.4769C40.3827 38.4453 40.5568 38.4084 40.7308 38.3662H40.7836L41.311 38.2185L41.464 38.171H41.5062C41.7013 38.113 41.8912 38.0497 42.0758 37.9759C42.2604 37.902 42.5083 37.8018 42.7192 37.7069C42.9302 37.612 43.1306 37.5065 43.3258 37.3957C43.3778 37.3728 43.4273 37.3445 43.4734 37.3113L67.8141 23.1447C68.366 22.8337 68.8675 22.4406 69.3014 21.9791V22.0107L73.774 42.0529C74.0271 43.1552 73.2835 44.305 71.7645 45.1805H71.7487Z" fill="#6A61C9"/>
</svg>
