<svg width="51" height="51" viewBox="0 0 51 51" fill="none" xmlns="http://www.w3.org/2000/svg">
<path d="M43.799 0H6.541C4.80632 0.0003509 3.1428 0.689602 1.9162 1.9162C0.689602 3.1428 0.0003509 4.80632 0 6.541L0 43.799C0.0003509 45.5337 0.689602 47.1972 1.9162 48.4238C3.1428 49.6504 4.80632 50.3396 6.541 50.34H27.3883L5.18568 28.1387L14.2322 25.17L21.2152 23.6413L25.17 25.17L27.7628 23.317L33.9319 24.3467L45.1212 25.9827L50.34 31.2001V6.541C50.3396 4.80632 49.6504 3.1428 48.4238 1.9162C47.1972 0.689602 45.5337 0.0003509 43.799 0V0Z" fill="#907DFF"/>
<path d="M33.9318 24.3401L27.7627 23.3104L25.1699 25.1634L21.2151 23.6347L14.232 25.1634L5.18555 28.1387L27.3881 50.34H43.8002C45.5349 50.3397 47.1984 49.6504 48.425 48.4238C49.6516 47.1972 50.3408 45.5337 50.3412 43.799V31.1935L45.1224 25.9761L33.9318 24.3401Z" fill="#6A61C9"/>
<path d="M44.041 28.6139C43.9097 28.614 43.7789 28.5971 43.6519 28.5636L29.5455 24.8828C29.2107 24.7957 28.8605 24.7864 28.5216 24.8556C28.1827 24.9249 27.8642 25.0709 27.5904 25.2823C27.3167 25.4938 27.0951 25.7652 26.9425 26.0756C26.79 26.3861 26.7106 26.7274 26.7104 27.0733C26.7104 27.4819 26.5481 27.8737 26.2592 28.1626C25.9703 28.4516 25.5784 28.6139 25.1698 28.6139C24.7612 28.6139 24.3694 28.4516 24.0804 28.1626C23.7915 27.8737 23.6292 27.4819 23.6292 27.0733C23.629 26.7274 23.5496 26.3861 23.3971 26.0756C23.2445 25.7652 23.0229 25.4938 22.7492 25.2823C22.4755 25.0709 22.1569 24.9249 21.818 24.8556C21.4792 24.7864 21.1289 24.7957 20.7941 24.8828L6.68773 28.5636C6.49014 28.6205 6.28316 28.6373 6.07899 28.6129C5.87482 28.5886 5.67759 28.5236 5.49891 28.4219C5.32024 28.3201 5.16374 28.1837 5.03864 28.0205C4.91354 27.8573 4.82238 27.6707 4.77052 27.4717C4.71865 27.2728 4.70714 27.0654 4.73667 26.8619C4.76619 26.6585 4.83615 26.4629 4.94242 26.2869C5.04868 26.1109 5.18911 25.9579 5.35543 25.837C5.52174 25.7161 5.71058 25.6297 5.9108 25.5829L20.0172 21.9021C20.8073 21.6929 21.6351 21.669 22.4359 21.8325C23.2367 21.996 23.9889 22.3423 24.6338 22.8445C24.8204 22.9902 24.9973 23.148 25.1632 23.317C25.3315 23.1478 25.5106 22.9895 25.6992 22.8432C26.3443 22.3415 27.0966 21.9956 27.8974 21.8323C28.6981 21.6691 29.5258 21.693 30.3158 21.9021L44.4222 25.5829C44.7843 25.6778 45.0994 25.9012 45.3088 26.2114C45.5182 26.5217 45.6074 26.8975 45.5599 27.2688C45.5124 27.64 45.3314 27.9813 45.0507 28.2288C44.7699 28.4764 44.4087 28.6132 44.0344 28.6139H44.041Z" fill="#ECEBF2"/>
</svg>
