<svg width="50" height="50" viewBox="0 0 50 50" fill="none" xmlns="http://www.w3.org/2000/svg">
<g clip-path="url(#clip0_105_593)">
<path d="M6.49681 0.591553H43.5032C45.2261 0.591896 46.8784 1.26655 48.0967 2.46718C49.3151 3.6678 49.9997 5.2961 50 6.99404V43.4631C49.9997 45.161 49.3151 46.7893 48.0967 47.9899C46.8784 49.1906 45.2261 49.8652 43.5032 49.8656H21.4939L43.866 27.817L41.4997 22.1517L43.866 19.8197L38.622 14.6376L36.2557 16.9696L30.5082 14.6376L28.1419 16.9696L22.3931 14.6376L20.0268 16.9696L14.2793 14.6376L11.913 16.9696L6.16553 14.6376L0.0315437 20.6826V6.99404C0.0318718 5.30147 0.712132 3.67787 1.92363 2.47813C3.13513 1.27839 4.77933 0.600113 6.49681 0.591553Z" fill="#907DFF"/>
<path d="M11.8761 16.9761L14.2424 14.6441L19.9899 16.9761L22.3562 14.6441L28.105 16.9761L30.4713 14.6441L36.2188 16.9761L38.5851 14.6441L43.8291 19.8262L41.4628 22.1582L43.8291 27.8235L21.4938 49.8656H6.49672C4.77376 49.8652 3.12147 49.1906 1.90316 47.9899C0.684845 46.7893 0.000244141 45.161 -0.000102997 43.4631V20.6826L6.13388 14.6376L11.8761 16.9761Z" fill="#6A61C9"/>
<path d="M39.8093 14.1505H42.6712C43.6049 14.1505 44.3618 14.8964 44.3618 15.8166V18.6369C44.3618 19.557 43.6049 20.303 42.6712 20.303H39.8093C38.8756 20.303 38.1187 19.557 38.1187 18.6369V15.8166C38.1187 14.8964 38.8756 14.1505 39.8093 14.1505Z" fill="#ECEBF2"/>
<path d="M31.6887 14.1505H34.5506C35.4843 14.1505 36.2412 14.8964 36.2412 15.8166V18.6369C36.2412 19.557 35.4843 20.303 34.5506 20.303H31.6887C30.755 20.303 29.9981 19.557 29.9981 18.6369V15.8166C29.9981 14.8964 30.755 14.1505 31.6887 14.1505Z" fill="#ECEBF2"/>
<path d="M23.5696 14.1505H26.4315C27.3652 14.1505 28.1221 14.8964 28.1221 15.8166V18.6369C28.1221 19.557 27.3652 20.303 26.4315 20.303H23.5696C22.6359 20.303 21.879 19.557 21.879 18.6369V15.8166C21.879 14.8964 22.6359 14.1505 23.5696 14.1505Z" fill="#ECEBF2"/>
<path d="M15.4494 14.1505H18.3114C19.245 14.1505 20.002 14.8964 20.002 15.8166V18.6369C20.002 19.557 19.245 20.303 18.3114 20.303H15.4494C14.5158 20.303 13.7589 19.557 13.7589 18.6369V15.8166C13.7589 14.8964 14.5158 14.1505 15.4494 14.1505Z" fill="#ECEBF2"/>
<path d="M7.32884 14.1505H10.1908C11.1244 14.1505 11.8813 14.8964 11.8813 15.8166V18.6369C11.8813 19.557 11.1244 20.303 10.1908 20.303H7.32884C6.39515 20.303 5.63825 19.557 5.63825 18.6369V15.8166C5.63825 14.8964 6.39515 14.1505 7.32884 14.1505Z" fill="#ECEBF2"/>
<path d="M39.8093 22.1517H42.6712C43.6049 22.1517 44.3618 22.8976 44.3618 23.8177V26.6381C44.3618 27.5582 43.6049 28.3041 42.6712 28.3041H39.8093C38.8756 28.3041 38.1187 27.5582 38.1187 26.6381V23.8177C38.1187 22.8976 38.8756 22.1517 39.8093 22.1517Z" fill="#ECEBF2"/>
<path d="M31.6887 22.1517H34.5506C35.4843 22.1517 36.2412 22.8976 36.2412 23.8177V26.6381C36.2412 27.5582 35.4843 28.3041 34.5506 28.3041H31.6887C30.755 28.3041 29.9981 27.5582 29.9981 26.6381V23.8177C29.9981 22.8976 30.755 22.1517 31.6887 22.1517Z" fill="#ECEBF2"/>
<path d="M23.5696 22.1517H26.4315C27.3652 22.1517 28.1221 22.8976 28.1221 23.8177V26.6381C28.1221 27.5582 27.3652 28.3041 26.4315 28.3041H23.5696C22.6359 28.3041 21.879 27.5582 21.879 26.6381V23.8177C21.879 22.8976 22.6359 22.1517 23.5696 22.1517Z" fill="#ECEBF2"/>
<path d="M15.4494 22.1517H18.3114C19.245 22.1517 20.002 22.8976 20.002 23.8177V26.6381C20.002 27.5582 19.245 28.3041 18.3114 28.3041H15.4494C14.5158 28.3041 13.7589 27.5582 13.7589 26.6381V23.8177C13.7589 22.8976 14.5158 22.1517 15.4494 22.1517Z" fill="#ECEBF2"/>
<path d="M7.32884 22.1517H10.1908C11.1244 22.1517 11.8813 22.8976 11.8813 23.8177V26.6381C11.8813 27.5582 11.1244 28.3041 10.1908 28.3041H7.32884C6.39515 28.3041 5.63825 27.5582 5.63825 26.6381V23.8177C5.63825 22.8976 6.39515 22.1517 7.32884 22.1517Z" fill="#ECEBF2"/>
<path d="M15.4493 30.1541H34.5506C34.999 30.1541 35.429 30.3296 35.746 30.6421C36.0631 30.9545 36.2412 31.3783 36.2412 31.8202V34.6405C36.2412 35.0824 36.0631 35.5061 35.746 35.8186C35.429 36.131 34.999 36.3066 34.5506 36.3066H15.4493C15.0009 36.3066 14.5709 36.131 14.2539 35.8186C13.9368 35.5061 13.7587 35.0824 13.7587 34.6405V31.8202C13.7587 31.3783 13.9368 30.9545 14.2539 30.6421C14.5709 30.3296 15.0009 30.1541 15.4493 30.1541Z" fill="#ECEBF2"/>
</g>
<defs>
<clipPath id="clip0_105_593">
<rect width="50" height="49.274" fill="white" transform="matrix(-1 0 0 1 50 0.591553)"/>
</clipPath>
</defs>
</svg>
